<svg width="27" height="31" viewBox="0 0 27 31" fill="none" xmlns="http://www.w3.org/2000/svg">
<path fill-rule="evenodd" clip-rule="evenodd" d="M17.9308 4.94782C19.0606 3.63838 19.8221 1.8146 19.6137 0C17.9856 0.0619858 16.0159 1.04004 14.8485 2.34792C13.8002 3.50859 12.885 5.36316 13.1311 7.14214C14.9472 7.27694 16.801 6.25879 17.9308 4.94782ZM22.0034 16.465C22.0488 21.1557 26.297 22.7161 26.344 22.7362C26.3095 22.8462 25.6655 24.9595 24.1063 27.1445C22.7571 29.032 21.3578 30.9118 19.153 30.952C16.9874 30.9908 16.2901 29.7217 13.8127 29.7217C11.3369 29.7217 10.5628 30.9116 8.51313 30.9906C6.38515 31.0666 4.76331 28.9486 3.40472 27.0673C0.624871 23.2196 -1.49841 16.1939 1.35353 11.4521C2.77009 9.09821 5.30078 7.60533 8.04929 7.56814C10.1381 7.5294 12.1109 8.915 13.3881 8.915C14.6652 8.915 17.0627 7.24914 19.5824 7.49399C20.637 7.53583 23.5986 7.90141 25.4993 10.5683C25.3458 10.6597 21.9658 12.5444 22.0034 16.465Z" fill="black"/>
</svg>
