<svg width="35" height="40" viewBox="0 0 35 40" fill="none" xmlns="http://www.w3.org/2000/svg">
<g clip-path="url(#clip0_511_2992)">
<path d="M7.62402 11.2749C10.2403 12.5546 12.8765 13.718 15.7674 14.1682C17.8313 14.4293 19.9269 14.2007 21.8886 13.5005C23.479 12.9791 25.0349 12.3557 26.547 11.634C26.8483 11.4817 27.1192 11.2742 27.3458 11.022C27.3962 11.5551 27.2875 12.0912 27.0338 12.561C26.7801 13.0308 26.3931 13.4127 25.9229 13.6573C25.8101 13.6982 25.7112 13.7708 25.6378 13.8667C25.5644 13.9626 25.5195 14.0777 25.5085 14.1985C25.2482 15.7244 24.6678 17.1759 23.8065 18.4552C22.9452 19.7344 21.823 20.8115 20.5156 21.6138C18.4086 22.934 16.3166 22.7974 14.2895 21.4469C13.0327 20.6381 11.9564 19.5726 11.1293 18.3184C10.3023 17.0642 9.74268 15.6489 9.48636 14.1631C9.47754 14.0515 9.43768 13.9448 9.3714 13.8553C9.30512 13.7657 9.21514 13.6971 9.1119 13.6573C8.67174 13.437 8.30002 13.0982 8.03754 12.6779C7.77506 12.2576 7.63198 11.7722 7.62402 11.2749Z" fill="#1E1E1E"/>
<path d="M17.5448 0C18.7852 0.0254849 20.0045 0.329542 21.1147 0.890238C23.0752 1.88232 24.9178 3.09736 26.6069 4.51189C27.0888 4.82391 27.5033 5.23173 27.8252 5.71067C28.2845 6.54021 27.9849 7.22812 27.0513 7.35964C26.8435 7.39509 26.6323 7.40528 26.4222 7.38998C26.1575 7.38998 26.0527 7.47092 26.0926 7.72888C26.1475 8.07284 26.0127 8.16894 25.6682 8.16894C20.1961 8.16894 14.7272 8.16894 9.26167 8.16894C8.91716 8.16894 8.76238 8.07284 8.83228 7.72888C8.90218 7.38493 8.73243 7.36469 8.4678 7.38998C8.15887 7.42155 7.84686 7.38355 7.55411 7.27871C7.42639 7.24639 7.30729 7.18589 7.20534 7.10152C7.10338 7.01716 7.02107 6.91102 6.96431 6.79069C6.90754 6.67036 6.87772 6.53881 6.87697 6.40545C6.87622 6.27208 6.90455 6.1402 6.95996 6.01922C7.07757 5.65869 7.29615 5.3406 7.58906 5.10369C9.42454 3.5208 11.4272 2.14843 13.5605 1.01163C14.7907 0.359195 16.1564 0.0124463 17.5448 0ZM17.43 6.54527C17.825 6.54527 18.2111 6.42661 18.5396 6.20429C18.868 5.98197 19.124 5.66598 19.2751 5.29627C19.4263 4.92657 19.4658 4.51976 19.3888 4.12728C19.3117 3.73481 19.1215 3.3743 18.8422 3.09134C18.5629 2.80838 18.207 2.61568 17.8196 2.53761C17.4322 2.45954 17.0307 2.49961 16.6657 2.65275C16.3008 2.80588 15.9889 3.06521 15.7694 3.39794C15.55 3.73066 15.4329 4.12184 15.4329 4.522C15.4329 5.05861 15.6433 5.57323 16.0178 5.95267C16.3923 6.33211 16.9003 6.54527 17.43 6.54527Z" fill="#1E1E1E"/>
<path d="M3.15527 28.5533C3.44751 27.3052 3.86752 26.0914 4.40848 24.9317C4.71496 24.2865 5.08819 23.6761 5.52189 23.1107C6.08643 22.3563 6.81666 21.7455 7.6547 21.3267C8.49274 20.908 9.41556 20.6927 10.35 20.698C10.6996 20.6631 11.0524 20.7081 11.3825 20.8298C11.7126 20.9515 12.0116 21.1467 12.2573 21.4011C13.1756 22.3102 14.2876 22.9937 15.5076 23.399C16.4078 23.7095 17.3649 23.8134 18.3095 23.7032C19.2542 23.593 20.1629 23.2714 20.9698 22.7617C21.8096 22.2712 22.5833 21.6728 23.2715 20.9812C23.6854 20.7405 24.1696 20.6545 24.6396 20.7384C24.8143 20.8295 24.6695 20.9357 24.6396 21.0116C24.2052 21.8057 23.7658 22.5897 23.3315 23.3788C22.8322 24.2893 22.3329 25.1947 21.8336 26.1102C21.8177 26.1562 21.7926 26.1983 21.7599 26.2339C21.7272 26.2696 21.6876 26.2981 21.6435 26.3175C21.5995 26.337 21.552 26.347 21.5039 26.3471C21.4559 26.3471 21.4083 26.337 21.3643 26.3176C19.1948 25.7779 16.9388 25.697 14.7371 26.08C12.5353 26.4629 10.4351 27.3014 8.56754 28.5432C8.35285 28.6798 8.24301 28.6949 8.06826 28.4825C7.86405 28.2726 7.61705 28.1104 7.34452 28.0074C7.072 27.9043 6.78053 27.8627 6.49051 27.8856C5.46545 27.8568 4.44556 28.0427 3.49479 28.4319L3.15527 28.5533Z" fill="#1E1E1E"/>
<path d="M0 35.24C0.0798859 32.888 1.2582 31.2947 3.12554 30.1819C4.12927 29.5674 5.28894 29.2649 6.46077 29.3119C6.56111 29.3127 6.66125 29.3211 6.76034 29.3372C6.86519 29.3372 7 29.3372 7.02996 29.4889C7.05991 29.6406 6.96006 29.671 6.89016 29.7368C6.66049 29.9492 6.42582 30.1566 6.19116 30.364C6.08131 30.4601 6.07632 30.5157 6.22111 30.6068C7.80385 31.6184 8.24822 32.63 7.81384 34.4611C7.43256 36.2636 6.37673 37.8463 4.86805 38.8769C3.67475 39.6963 2.33167 39.6761 1.37304 38.8769C0.62368 38.1476 0.165198 37.1646 0.0848787 36.1151C0.0299572 35.8066 0.0249643 35.4879 0 35.24Z" fill="#1E1E1E"/>
<path d="M28.829 29.3071C31.6799 29.3375 34.3211 31.4417 34.8803 34.1326C35.153 35.3977 34.9762 36.7196 34.381 37.8656C34.228 38.2124 34.0046 38.5227 33.7256 38.7765C33.4465 39.0303 33.1179 39.2218 32.761 39.3386C32.4042 39.4555 32.0271 39.495 31.6542 39.4548C31.2813 39.4145 30.9209 39.2952 30.5964 39.1048C28.9887 38.2803 28.0551 36.8691 27.421 35.2201C27.12 34.4795 27.005 33.6749 27.0865 32.8782C27.1262 32.4058 27.2909 31.9531 27.5633 31.5676C27.8357 31.1822 28.2057 30.8783 28.6343 30.688C28.9738 30.5312 28.9139 30.4351 28.6792 30.253C28.4445 30.0709 28.3247 29.9445 28.1499 29.7775C28.0651 29.6966 27.9303 29.6207 27.9852 29.474C28.0401 29.3274 28.1899 29.3425 28.3097 29.3324C28.4295 29.3223 28.6592 29.3071 28.829 29.3071Z" fill="#1E1E1E"/>
<path d="M17.1557 13.1917C15.3452 13.092 13.5643 12.6833 11.8882 11.9828C10.8896 11.5983 9.89104 11.1633 8.89247 10.7182C8.62586 10.6162 8.3925 10.441 8.21843 10.2124C8.14189 10.1268 8.09224 10.02 8.07581 9.90572C8.05939 9.79141 8.07693 9.67474 8.1262 9.57056C8.17547 9.46639 8.25424 9.37944 8.35247 9.32079C8.4507 9.26214 8.56395 9.23445 8.67777 9.24124H25.8832C26.2277 9.24124 26.5772 9.24124 26.717 9.64084C26.7538 9.83262 26.7242 10.0314 26.6333 10.2037C26.5423 10.3759 26.3956 10.5112 26.2177 10.5867C23.5865 11.7855 20.9702 12.9691 18.0494 13.1866C17.7548 13.2119 17.4752 13.1917 17.1557 13.1917Z" fill="#1E1E1E"/>
<path d="M9.27651 32.4584C9.16162 31.7838 8.89136 31.146 8.48763 30.597C8.32287 30.3947 8.45768 30.3289 8.59248 30.2278C10.5791 28.7218 12.9101 27.7507 15.3678 27.4053C19.1908 26.8263 23.086 27.7788 26.2273 30.0609C26.2972 30.1114 26.3621 30.1721 26.437 30.2177C26.6317 30.334 26.6866 30.4402 26.5169 30.6527C26.1753 31.0868 25.9393 31.5962 25.8279 32.1398C25.763 32.4635 25.6681 32.4129 25.4634 32.251C23.9138 31.0022 22.0983 30.1363 20.161 29.722C19.6617 29.6157 19.5668 29.6764 19.467 30.1721C19.3871 30.5768 19.3172 30.9865 19.2672 31.4013C19.2672 31.5884 19.1824 31.6592 18.9926 31.6542C17.9941 31.6542 17.0354 31.6542 16.0568 31.6542C15.8721 31.6542 15.7972 31.5935 15.7772 31.4013C15.7273 30.9865 15.6624 30.5768 15.5775 30.1721C15.4776 29.6663 15.3778 29.6107 14.8885 29.7169C12.9755 30.1227 11.1792 30.9652 9.63599 32.1802L9.27651 32.4584Z" fill="#1E1E1E"/>
<path d="M12.2124 40.0002C12.7645 39.3674 13.2467 38.6754 13.6503 37.9364C14.3461 36.6138 14.7674 35.161 14.8886 33.6673C14.9335 33.1615 15.0683 33.0098 15.5876 33.0098C16.8857 33.0098 18.1889 33.0098 19.492 33.0098C19.8964 33.0098 20.0712 33.1666 20.1011 33.556C20.2599 35.8675 21.1473 38.0662 22.6325 39.8282C22.6725 39.8737 22.6974 39.9293 22.7623 40.0204L12.2124 40.0002Z" fill="#1E1E1E"/>
<path d="M31.7648 28.5127C31.2783 28.3167 30.7775 28.1594 30.2669 28.0422C29.6109 27.9013 28.9388 27.8536 28.2698 27.9006C28.002 27.9026 27.7377 27.9628 27.4948 28.0771C27.2519 28.1914 27.0361 28.3572 26.8618 28.5632C26.7569 28.6948 26.6721 28.6796 26.5522 28.5986C25.6534 27.9962 24.6965 27.4878 23.6963 27.0812C23.5266 27.0104 23.4667 26.9446 23.5715 26.7524C24.59 24.9214 25.6003 23.0852 26.6022 21.2441C26.712 21.0417 26.8318 21.0771 26.9966 21.148C28.3345 21.7472 29.4401 22.7765 30.1421 24.0766C30.8857 25.4075 31.4403 26.8378 31.7898 28.3255C31.8029 28.356 31.8075 28.3896 31.8031 28.4226C31.7987 28.4556 31.7854 28.4868 31.7648 28.5127Z" fill="#1E1E1E"/>
</g>
<defs>
<clipPath id="clip0_511_2992">
<rect width="35" height="40" fill="white"/>
</clipPath>
</defs>
</svg>
