<svg width="29" height="29" viewBox="0 0 29 29" fill="none" xmlns="http://www.w3.org/2000/svg">
<path d="M14.5 0.804993C6.9375 0.804993 0.75 6.97874 0.75 14.5825C0.75 21.4575 5.7825 27.1638 12.355 28.195V18.57H8.8625V14.5825H12.355V11.5437C12.355 8.09249 14.4038 6.19499 17.5525 6.19499C19.0513 6.19499 20.6188 6.45624 20.6188 6.45624V9.85249H18.8863C17.1813 9.85249 16.645 10.9112 16.645 11.9975V14.5825H20.4675L19.8488 18.57H16.645V28.195C19.8851 27.6832 22.8355 26.0301 24.9636 23.5338C27.0917 21.0376 28.2574 17.8627 28.25 14.5825C28.25 6.97874 22.0625 0.804993 14.5 0.804993Z" fill="black"/>
</svg>
