<svg width="27" height="29" viewBox="0 0 27 29" fill="none" xmlns="http://www.w3.org/2000/svg">
<path d="M26.7567 12.3988L26.603 11.8008H13.893V17.1992H21.4951C21.0709 18.8465 20.1065 20.3039 18.7561 21.3383C17.4058 22.3727 15.7475 22.9243 14.0467 22.905C11.8273 22.8867 9.69482 22.0397 8.06755 20.5304C7.26762 19.742 6.63106 18.8035 6.19428 17.7687C5.75751 16.734 5.5291 15.6232 5.52215 14.5C5.54796 12.2442 6.4411 10.0847 8.01632 8.46963C9.62061 6.94982 11.7514 6.11093 13.9613 6.12921C15.854 6.14378 17.6763 6.8484 19.0863 8.11088L22.8446 4.25004C20.3676 2.04007 17.1614 0.823262 13.8417 0.833375C12.0155 0.822527 10.2052 1.17147 8.5139 1.86031C6.82262 2.54912 5.28356 3.56433 3.98465 4.84796C1.51387 7.41435 0.120861 10.8302 0.092246 14.3926C0.0636485 17.9549 1.40165 21.3926 3.8309 23.9983C5.17679 25.3392 6.77644 26.3986 8.53635 27.1142C10.2963 27.83 12.1811 28.1877 14.0809 28.1667C15.8036 28.1795 17.5111 27.8424 19.0998 27.1758C20.6884 26.5093 22.1251 25.5271 23.323 24.2888C25.6735 21.7042 26.945 18.3176 26.8763 14.8246C26.8948 14.0142 26.8548 13.2036 26.7567 12.3988Z" fill="black"/>
</svg>
