<svg width="34" height="43" viewBox="0 0 34 43" fill="none" xmlns="http://www.w3.org/2000/svg">
<path d="M0.000452684 37.4076C1.00526 38.0776 5.70135 43 16.8509 43C29.6023 43 33.9999 37.4076 33.9999 37.4076C34.0167 34.2033 32.499 31.3383 30.1236 29.4484C29.3374 28.8041 28.4924 28.3316 27.6557 27.9837C27.538 27.9365 27.4245 27.8892 27.3026 27.842C27.2773 27.8334 27.2563 27.8248 27.2311 27.8162C26.5248 27.5499 25.7806 27.3523 25.0071 27.2406C23.1068 26.9314 21.6605 27.1247 21.6605 27.1247C21.7236 26.8283 21.753 26.5233 21.753 26.2141C21.753 26.1282 21.7446 26.0465 21.7404 25.9649C23.2161 24.6978 24.1494 22.8552 24.1494 20.7977V20.6431C25.5452 20.4928 26.6341 19.3459 26.6341 17.95C26.6341 16.5497 25.5368 15.3943 24.1242 15.2568C24.0779 14.634 23.9518 14.037 23.75 13.4743H24.1788V8.35002C26.1758 7.98921 27.7188 6.2754 27.7188 4.20078C27.7188 1.88133 25.7764 0 23.38 0C22.0389 0 20.8407 0.579862 20.0419 1.52053C19.2978 0.717311 18.2131 0.219059 17.0149 0.219059C15.8167 0.219059 14.732 0.717311 13.9878 1.52053C13.189 0.579862 11.9908 0 10.6497 0C8.25331 0 6.31097 1.88133 6.31097 4.20078C6.31097 6.2754 7.85391 7.98921 9.90977 8.35002V13.4657H10.2839C10.0821 14.0327 9.95181 14.6297 9.90977 15.2482C8.50136 15.39 7.39985 16.5411 7.39985 17.9414C7.39985 19.333 8.48454 20.4799 9.88454 20.6345V20.7891C9.88454 22.8466 10.8221 24.6892 12.2935 25.9563C12.2893 26.038 12.2809 26.1239 12.2809 26.2055C12.2809 26.519 12.3146 26.824 12.3734 27.1161H10.6245C8.13559 27.1161 5.8443 27.9494 4.03229 29.341C-0.129877 32.4852 0.000452684 37.4076 0.000452684 37.4076Z" fill="#1E1E1E"/>
</svg>
