<svg width="47" height="71" viewBox="0 0 47 71" fill="none" xmlns="http://www.w3.org/2000/svg">
<path d="M40.0311 6.83271C36.7528 3.57144 32.5732 1.34968 28.0218 0.448992C23.4708 -0.451698 18.7522 0.0091908 14.4652 1.7733C10.178 3.53736 6.5147 6.52524 3.93954 10.3583C1.36443 14.1914 -0.00666111 18.6971 2.43326e-05 23.3046C2.43326e-05 24.1096 0.322107 24.8816 0.895505 25.4509C1.46886 26.0201 2.24649 26.3399 3.05739 26.3399C3.86824 26.3399 4.64587 26.0201 5.21927 25.4509C5.79263 24.8816 6.11475 24.1096 6.11475 23.3046C6.10668 19.8912 7.11932 16.5523 9.02443 13.7109C10.9295 10.8695 13.6413 8.65339 16.8163 7.34345C19.9911 6.03352 23.4858 5.6887 26.8583 6.35263C30.2308 7.01661 33.3289 8.65946 35.7601 11.0731C38.191 13.4866 39.846 16.5624 40.5146 19.9105C41.1835 23.2587 40.8362 26.7286 39.5166 29.8804C38.1971 33.0327 35.9652 35.7249 33.1031 37.6161C30.241 39.5074 26.8779 40.5131 23.4398 40.505C22.6322 40.5155 21.8605 40.8385 21.2894 41.4055C20.7183 41.9725 20.393 42.7386 20.3824 43.5403V51.6346C20.3824 52.4396 20.7045 53.2118 21.278 53.7808C21.8512 54.3502 22.629 54.67 23.4398 54.67C24.2506 54.67 25.0284 54.3502 25.6015 53.7808C26.1751 53.2118 26.4971 52.4396 26.4971 51.6346V46.3733C30.8305 45.797 34.9159 44.0308 38.2929 41.2739C41.6698 38.5166 44.2046 34.8786 45.6114 30.7684C47.0182 26.6587 47.2412 22.2405 46.2551 18.0115C45.2694 13.7827 43.1137 9.91104 40.0311 6.83271Z" fill="#2F4B26"/>
<path d="M22.97 71C25.715 71 27.94 68.6161 27.94 65.675C27.94 62.7339 25.715 60.35 22.97 60.35C20.225 60.35 18 62.7339 18 65.675C18 68.6161 20.225 71 22.97 71Z" fill="#2F4B26"/>
</svg>
